# xmcd
#
# Track frame offsets:
#	150
#	11883
#	19909
#	29812
#	42316
#	53657
#	63509
#	78403
#	88309
#	99447
#
# Disc length: 1482
#
# Revision: 2
# Processed by: cddbd v1.5.1PL0 Copyright (c) Steve Scherf et al.
# Submitted via: CDex 1.50
# Normalized: r1:TRMNUM
#
DISCID=8305c80a
DTITLE=Don Gibson - Good Old Country
DYEAR=2000
DGENRE=Country
TTITLE0=Oh Lonesome Me
TTITLE1=Blue Blue Day
TTITLE2=Lonesome Number One
TTITLE3=Just One Time
TTITLE4=Sea Of Heartbreak
TTITLE5=Sweet Dreams Of You
TTITLE6=Woman Sensuous Woman
TTITLE7=Who Cares For Me
TTITLE8=I Can Mend Your Broken Heart
TTITLE9=Country Green
EXTD=YEAR: 2000
EXTT0=
EXTT1=
EXTT2=
EXTT3=
EXTT4=
EXTT5=
EXTT6=
EXTT7=
EXTT8=
EXTT9=
PLAYORDER=
